<svg width="512" height="512" viewBox="0 0 512 512" fill="none" xmlns="http://www.w3.org/2000/svg">
  <defs>
    <linearGradient id="logo_gradient" x1="256" y1="0" x2="256" y2="512" gradientUnits="userSpaceOnUse">
      <!-- Changed to White -> Bright Green to be visible on both Blue (Light) and Dark backgrounds -->
      <stop offset="0%" stop-color="#ffffff" />
      <stop offset="100%" stop-color="#69f0ae" />
    </linearGradient>
  </defs>
  <g stroke="url(#logo_gradient)" stroke-width="32" stroke-linecap="round" stroke-linejoin="round">
    <path d="M256 32 L448 144 L448 368 L256 480 L64 368 L64 144 Z" fill="none"/>
    <path d="M160 144 L352 144" />
    <path d="M256 144 L256 368" />
    <path d="M256 144 C320 144 352 176 352 224 C352 272 320 288 288 288 M288 288 C320 288 352 304 352 352 C352 400 320 432 256 432 L256 144 Z" />
    <circle cx="112" cy="200" r="16" fill="url(#logo_gradient)" stroke="none"/>
    <path d="M112 200 L144 200 L144 300" />
    <circle cx="400" cy="300" r="16" fill="url(#logo_gradient)" stroke="none"/>
    <path d="M400 300 L368 300 L368 200" />
  </g>
</svg>